<!DOCTYPE svg PUBLIC "-//W3C//DTD SVG 1.1//EN" "http://www.w3.org/Graphics/SVG/1.1/DTD/svg11.dtd">
<!-- Uploaded to: SVG Repo, www.svgrepo.com, Transformed by: SVG Repo Mixer Tools -->
<svg fill="#f66151" width="211px" height="211px" viewBox="-1.92 -1.92 35.84 35.84" version="1.1" xmlns="http://www.w3.org/2000/svg" transform="rotate(0)matrix(-1, 0, 0, 1, 0, 0)" stroke="#f66151" stroke-width="0.8960000000000001">
<g id="SVGRepo_bgCarrier" stroke-width="0" transform="translate(0.3200000000000003,0.3200000000000003), scale(0.98)">
<path transform="translate(-1.92, -1.92), scale(2.24)" fill="#99c1f1" d="M9.166.33a2.25 2.25 0 00-2.332 0l-5.25 3.182A2.25 2.25 0 00.5 5.436v5.128a2.25 2.25 0 001.084 1.924l5.25 3.182a2.25 2.25 0 002.332 0l5.25-3.182a2.25 2.25 0 001.084-1.924V5.436a2.25 2.25 0 00-1.084-1.924L9.166.33z" strokewidth="0"/>
</g>
<g id="SVGRepo_tracerCarrier" stroke-linecap="round" stroke-linejoin="round" stroke="#3d3846" stroke-width="2.112"> <title>feather-wing</title> <path d="M28.665 25.537c-1.966-1.094-3.116-2.962-3.232-4.673-0.619-9.164-15.889-10.357-23.662-19.509l-0 0c0.403 11.661 13.204 11.604 20.744 17.449-4.879-2.113-12.876-1.649-18.664-5.404 2.7 8.775 12.332 5.886 19.406 8.271-4.212-0.411-9.768 1.968-15.020 0.086 4.638 7.31 10.654 2.427 16.483 2.47-2.94 0.749-5.977 4.025-10.036 3.718 4.946 4.76 7.536 0.139 11.079-1.633-0.357 0.425-0.583 0.967-0.61 1.565-0.064 1.443 1.054 2.665 2.497 2.73s2.665-1.054 2.73-2.497c0.052-1.169-0.672-2.193-1.716-2.574z"/> </g>
<g id="SVGRepo_iconCarrier"> <title>feather-wing</title> <path d="M28.665 25.537c-1.966-1.094-3.116-2.962-3.232-4.673-0.619-9.164-15.889-10.357-23.662-19.509l-0 0c0.403 11.661 13.204 11.604 20.744 17.449-4.879-2.113-12.876-1.649-18.664-5.404 2.7 8.775 12.332 5.886 19.406 8.271-4.212-0.411-9.768 1.968-15.020 0.086 4.638 7.31 10.654 2.427 16.483 2.47-2.94 0.749-5.977 4.025-10.036 3.718 4.946 4.76 7.536 0.139 11.079-1.633-0.357 0.425-0.583 0.967-0.61 1.565-0.064 1.443 1.054 2.665 2.497 2.73s2.665-1.054 2.73-2.497c0.052-1.169-0.672-2.193-1.716-2.574z"/> </g>
</svg>