<?xml version="1.0" encoding="iso-8859-1"?>
<!-- Uploaded to: SVG Repo, www.svgrepo.com, Generator: SVG Repo Mixer Tools -->
<svg height="800px" width="800px" version="1.1" id="Layer_1" xmlns="http://www.w3.org/2000/svg" xmlns:xlink="http://www.w3.org/1999/xlink" 
	 viewBox="0 0 512 512" xml:space="preserve">
<g>
	<circle style="fill:#A0EBFF;" cx="256" cy="256" r="256"/>
	<path style="fill:#71C6DE;" d="M202.173,331.776l16.087-15.923l-16.005-16.005l-95.785,95.785
		c17.664,17.664,46.305,17.664,63.974,0l31.734-31.734C193.306,355.026,193.306,340.644,202.173,331.776z"/>
	<path style="fill:#FFFFFF;" d="M196.413,353.772l-33.915,33.915c-10.476,10.475-26.061,12.513-38.794,6.595
		c-7.009-3.256-9.508-6.38-9.508-6.38l-7.726,7.726c17.664,17.664,46.305,17.664,63.974,0l31.734-31.734
		C199.27,360.991,197.417,357.473,196.413,353.772z"/>
	<path style="fill:#FC611F;" d="M229.924,263.419l-27.668,27.668c-2.417,2.417-2.417,6.339,0,8.76l15.995,15.995
		c2.417,2.417,6.339,2.417,8.76,0l27.668-27.668L229.924,263.419z"/>
	<path style="fill:#71C6DE;" d="M410.01,132.833l-24.75-24.75c-4.516-4.516-11.837-4.516-16.353,0L229.924,247.066
		c-4.516,4.516-4.516,11.837,0,16.353l24.75,24.75c4.516,4.516,11.837,4.516,16.353,0L410.01,149.187
		C414.525,144.671,414.525,137.349,410.01,132.833z"/>
	<path style="fill:#48AFCC;" d="M406.461,129.285l-8.827-8.827L242.304,275.794l8.827,8.827c3.22,3.22,9.492,2.171,14.008-2.345
		l138.982-138.982C408.632,138.778,409.682,132.506,406.461,129.285z"/>
	<path style="fill:#E34E10;" d="M242.304,275.794l-32.046,32.046l7.997,7.997c2.417,2.417,6.339,2.417,8.76,0l27.668-27.668
		L242.304,275.794z"/>
	<path style="fill:#3194B0;" d="M325.079,171.116l21.222,21.222c2.191,2.191,5.75,2.191,7.946,0c2.191-2.191,2.191-5.75,0-7.946
		l-21.222-21.222c-2.191-2.191-5.75-2.191-7.946,0C322.883,165.361,322.888,168.919,325.079,171.116z M340.895,197.75
		l-21.222-21.222c-2.191-2.191-5.75-2.191-7.946,0c-2.196,2.191-2.191,5.75,0,7.946l21.222,21.222c2.191,2.191,5.75,2.191,7.946,0
		C343.086,203.5,343.086,199.946,340.895,197.75z M327.537,211.108l-21.222-21.222c-2.191-2.191-5.75-2.191-7.946,0
		c-2.196,2.191-2.191,5.75,0,7.946l21.222,21.222c2.191,2.191,5.75,2.191,7.946,0C329.733,216.858,329.733,213.299,327.537,211.108z
		 M314.184,224.461l-21.222-21.222c-2.191-2.191-5.75-2.191-7.946,0c-2.191,2.191-2.191,5.75,0,7.946l21.222,21.222
		c2.191,2.191,5.75,2.191,7.946,0C316.375,230.216,316.375,226.657,314.184,224.461z"/>
</g>
</svg>